HIERARCHY
ROOT Hips
{
	OFFSET -14.64140 90.27770 -84.91600
	CHANNELS 6 Xposition Yposition Zposition Zrotation Xrotation Yrotation
	JOINT Spine
	{
		OFFSET 0.00000 13.20850 -1.60436
		CHANNELS 3 Zrotation Xrotation Yrotation
		JOINT Spine1
		{
			OFFSET 0.00000 8.61716 0.00000
			CHANNELS 3 Zrotation Xrotation Yrotation
			JOINT Spine2
			{
				OFFSET 0.00000 8.61717 0.00000
				CHANNELS 3 Zrotation Xrotation Yrotation
				JOINT Spine3
				{
					OFFSET 0.00000 8.61717 0.00000
					CHANNELS 3 Zrotation Xrotation Yrotation
					JOINT Neck
					{
						OFFSET 0.00000 11.07920 1.10792
						CHANNELS 3 Zrotation Xrotation Yrotation
						JOINT Neck1
						{
							OFFSET 0.00000 7.08032 0.00000
							CHANNELS 3 Zrotation Xrotation Yrotation
							JOINT Head
							{
								OFFSET 0.00000 7.08031 0.00000
								CHANNELS 3 Zrotation Xrotation Yrotation
								End site
								{
									OFFSET 0.00000 0.00000 0.00000
								}
							}
						}
					}
					JOINT RightShoulder
					{
						OFFSET -0.01000 7.91373 5.19711
						CHANNELS 3 Zrotation Xrotation Yrotation
						JOINT RightArm
						{
							OFFSET -18.41580 0.00000 0.00000
							CHANNELS 3 Zrotation Xrotation Yrotation
							JOINT RightForeArm
							{
								OFFSET -29.11090 0.00000 0.00000
								CHANNELS 3 Zrotation Xrotation Yrotation
								JOINT RightHand
								{
									OFFSET -24.65040 0.00000 0.00000
									CHANNELS 3 Zrotation Xrotation Yrotation
									JOINT RightHandThumb1
									{
										OFFSET -5.35114 -0.85590 3.97906
										CHANNELS 3 Zrotation Xrotation Yrotation
										JOINT RightHandThumb2
										{
											OFFSET -4.52789 0.00000 0.00000
											CHANNELS 3 Zrotation Xrotation Yrotation
											JOINT RightHandThumb3
											{
												OFFSET -2.46976 0.00000 0.00000
												CHANNELS 3 Zrotation Xrotation Yrotation
												End site
												{
													OFFSET 0.00000 0.00000 0.00000
												}
											}
										}
									}
									JOINT RightHandIndex1
									{
										OFFSET -14.26970 0.00000 2.88139
										CHANNELS 3 Zrotation Xrotation Yrotation
										JOINT RightHandIndex2
										{
											OFFSET -5.48836 0.00000 0.00000
											CHANNELS 3 Zrotation Xrotation Yrotation
											JOINT RightHandIndex3
											{
												OFFSET -3.01859 0.00000 0.00000
												CHANNELS 3 Zrotation Xrotation Yrotation
												End site
												{
													OFFSET 0.00000 0.00000 0.00000
												}
											}
										}
									}
									JOINT RightHandMiddle1
									{
										OFFSET -14.26970 0.00000 -0.09147
										CHANNELS 3 Zrotation Xrotation Yrotation
										JOINT RightHandMiddle2
										{
											OFFSET -6.17441 0.00000 0.00000
											CHANNELS 3 Zrotation Xrotation Yrotation
											JOINT RightHandMiddle3
											{
												OFFSET -3.56743 0.00000 0.00000
												CHANNELS 3 Zrotation Xrotation Yrotation
												End site
												{
													OFFSET 0.00000 0.00000 0.00000
												}
											}
										}
									}
									JOINT RightHandRing1
									{
										OFFSET -12.69180 0.00000 -3.06433
										CHANNELS 3 Zrotation Xrotation Yrotation
										JOINT RightHandRing2
										{
											OFFSET -5.62556 0.00000 0.00000
											CHANNELS 3 Zrotation Xrotation Yrotation
											JOINT RightHandRing3
											{
												OFFSET -3.56744 0.00000 0.00000
												CHANNELS 3 Zrotation Xrotation Yrotation
												End site
												{
													OFFSET 0.00000 0.00000 0.00000
												}
											}
										}
									}
									JOINT RightHandPinky1
									{
										OFFSET -11.11390 0.00000 -6.03719
										CHANNELS 3 Zrotation Xrotation Yrotation
										JOINT RightHandPinky2
										{
											OFFSET -4.52789 0.00000 0.00000
											CHANNELS 3 Zrotation Xrotation Yrotation
											JOINT RightHandPinky3
											{
												OFFSET -2.46976 0.00000 0.00000
												CHANNELS 3 Zrotation Xrotation Yrotation
												End site
												{
													OFFSET 0.00000 0.00000 0.00000
												}
											}
										}
									}
								}
							}
						}
					}
					JOINT LeftShoulder
					{
						OFFSET 0.01000 7.91373 5.19711
						CHANNELS 3 Zrotation Xrotation Yrotation
						JOINT LeftArm
						{
							OFFSET 18.41580 0.00000 0.00000
							CHANNELS 3 Zrotation Xrotation Yrotation
							JOINT LeftForeArm
							{
								OFFSET 29.11090 0.00000 0.00000
								CHANNELS 3 Zrotation Xrotation Yrotation
								JOINT LeftHand
								{
									OFFSET 24.65040 0.00000 0.00000
									CHANNELS 3 Zrotation Xrotation Yrotation
									JOINT LeftHandThumb1
									{
										OFFSET 5.35114 -0.85590 3.97906
										CHANNELS 3 Zrotation Xrotation Yrotation
										JOINT LeftHandThumb2
										{
											OFFSET 4.52789 0.00000 0.00000
											CHANNELS 3 Zrotation Xrotation Yrotation
											JOINT LeftHandThumb3
											{
												OFFSET 2.46977 0.00000 0.00000
												CHANNELS 3 Zrotation Xrotation Yrotation
												End site
												{
													OFFSET 0.00000 0.00000 0.00000
												}
											}
										}
									}
									JOINT LeftHandIndex1
									{
										OFFSET 14.26970 0.00000 2.88139
										CHANNELS 3 Zrotation Xrotation Yrotation
										JOINT LeftHandIndex2
										{
											OFFSET 5.48836 0.00000 0.00000
											CHANNELS 3 Zrotation Xrotation Yrotation
											JOINT LeftHandIndex3
											{
												OFFSET 3.01859 0.00000 0.00000
												CHANNELS 3 Zrotation Xrotation Yrotation
												End site
												{
													OFFSET 0.00000 0.00000 0.00000
												}
											}
										}
									}
									JOINT LeftHandMiddle1
									{
										OFFSET 14.26970 0.00000 -0.09147
										CHANNELS 3 Zrotation Xrotation Yrotation
										JOINT LeftHandMiddle2
										{
											OFFSET 6.17440 0.00000 0.00000
											CHANNELS 3 Zrotation Xrotation Yrotation
											JOINT LeftHandMiddle3
											{
												OFFSET 3.56744 0.00000 0.00000
												CHANNELS 3 Zrotation Xrotation Yrotation
												End site
												{
													OFFSET 0.00000 0.00000 0.00000
												}
											}
										}
									}
									JOINT LeftHandRing1
									{
										OFFSET 12.69180 0.00000 -3.06433
										CHANNELS 3 Zrotation Xrotation Yrotation
										JOINT LeftHandRing2
										{
											OFFSET 5.62556 0.00000 0.00000
											CHANNELS 3 Zrotation Xrotation Yrotation
											JOINT LeftHandRing3
											{
												OFFSET 3.56744 0.00000 0.00000
												CHANNELS 3 Zrotation Xrotation Yrotation
												End site
												{
													OFFSET 0.00000 0.00000 0.00000
												}
											}
										}
									}
									JOINT LeftHandPinky1
									{
										OFFSET 11.11390 0.00000 -6.03719
										CHANNELS 3 Zrotation Xrotation Yrotation
										JOINT LeftHandPinky2
										{
											OFFSET 4.52789 0.00000 0.00000
											CHANNELS 3 Zrotation Xrotation Yrotation
											JOINT LeftHandPinky3
											{
												OFFSET 2.46976 0.00000 0.00000
												CHANNELS 3 Zrotation Xrotation Yrotation
												End site
												{
													OFFSET 0.00000 0.00000 0.00000
												}
											}
										}
									}
								}
							}
						}
					}
					JOINT pCube4
					{
						OFFSET 0.00000 10.91090 1.10792
						CHANNELS 3 Zrotation Xrotation Yrotation
						End site
						{
							OFFSET 0.00000 0.00000 0.00000
						}
					}
				}
			}
		}
	}
	JOINT RightUpLeg
	{
		OFFSET -9.98441 0.00000 0.00000
		CHANNELS 3 Zrotation Xrotation Yrotation
		JOINT RightLeg
		{
			OFFSET 0.00000 -42.11790 0.00000
			CHANNELS 3 Zrotation Xrotation Yrotation
			JOINT RightFoot
			{
				OFFSET 0.00000 -45.00020 -0.00001
				CHANNELS 3 Zrotation Xrotation Yrotation
				JOINT RightForeFoot
				{
					OFFSET 0.00000 -3.74820 0.00000
					CHANNELS 3 Zrotation Xrotation Yrotation
					JOINT RightToeBase
					{
						OFFSET 0.00000 0.06325 14.43120
						CHANNELS 3 Zrotation Xrotation Yrotation
						End site
						{
							OFFSET 0.00000 0.00000 0.00000
						}
					}
				}
			}
		}
	}
	JOINT LeftUpLeg
	{
		OFFSET 9.98441 0.00000 0.00000
		CHANNELS 3 Zrotation Xrotation Yrotation
		JOINT LeftLeg
		{
			OFFSET 0.00000 -42.11800 0.00000
			CHANNELS 3 Zrotation Xrotation Yrotation
			JOINT LeftFoot
			{
				OFFSET 0.00000 -45.00070 0.00000
				CHANNELS 3 Zrotation Xrotation Yrotation
				JOINT LeftForeFoot
				{
					OFFSET 0.00000 -3.74824 0.00000
					CHANNELS 3 Zrotation Xrotation Yrotation
					JOINT LeftToeBase
					{
						OFFSET 0.00000 0.06325 14.43110
						CHANNELS 3 Zrotation Xrotation Yrotation
						End site
						{
							OFFSET 0.00000 0.00000 0.00000
						}
					}
				}
			}
		}
	}
}
MOTION
Frames: 4
Frame Time: 0.050000
0.04522912323281794 -0.037111413256967235 -0.014134697636533253 -0.016533156551224 0.02031930674258997 0.027803445669681705 4.4933164581716944 2.4208054628864866 -2.0831183048187376 -0.7070731291574969 3.5304118641337503 0.3731558081380929 -0.6344181659258017 -1.1469823622036988 1.4954051644204678 -0.05098915831248038 -0.3065603021773247 -0.24202878331713967 0.7603115023193497 11.896882485522113 -3.412270381902511 0.3328556796414876 -0.5968733855221386 -9.216179112496079 1.449778149465041 -16.945609290682658 -0.7635349149947075 -9.009824112701786 3.210276005922504 -15.909869075921842 75.5790606695517 21.30577082886257 15.669181106748598 33.00783373169811 9.27777381062833 87.49593504201373 18.847788140571613 -0.3375777948575363 -7.750711128367255 4.505972815369739 -0.12080835501885748 -1.5573916318712908 -0.00753011049298806 -0.008963176787658816 -56.184579903919094 0.04355713568280806 -0.009242359151203156 -56.226694746999705 -38.806464394912425 -0.002640031273257118 0.02864549823800586 -0.024795940429916816 0.048454650694074224 -0.0053125693010640735 -0.02969144387713921 -0.019137007114270726 -0.025046612007923297 -36.681262768247805 -0.04663798932204234 0.03204302627316506 -0.004105842983426595 -0.004852596321852535 -0.031122085869601333 0.01083693385278655 0.02131808942115912 -0.02341484872296736 -19.75122114682653 0.044259077643977726 0.01244720905060022 -0.037479640685207406 0.01170348543741865 0.010280628053386021 0.019701647970875938 0.03723904723132016 -0.04264657512471431 24.09301783437118 -0.026050800325351092 0.02896183304669925 28.86076060073861 -0.011696548285554775 0.03481709995029259 28.816579417743455 -0.010499980973687656 -0.046066393721416715 8.09510070546127 2.063094754761508 13.911032120145373 -74.13589988358068 26.597643014213126 -10.232533732332278 -30.03156508469834 8.213189731172417 -80.63102040801566 -24.466501463211905 -8.421511347384682 6.0264843864235935 -0.43163981397471474 0.0493173042857246 -8.161462938709137 0.04630169972473622 -0.04703599861088106 44.5555819021268 0.017439083459898558 0.03450001570684437 44.552205771850154 12.466612360938495 -0.03091093640001169 0.023849917017669458 0.003404388818456742 -0.024197286414140273 0.02216070221283884 -0.03279781958015424 -0.028165557031531875 -0.003128658562405539 11.059320611090227 0.03226854814412837 0.006196646794254983 0.021604885494346672 0.03905315862758598 0.010103402581620048 -0.0028681675029962527 -0.032454762895469544 -0.027856244183332154 4.731869996313089 0.04344715514765952 0.0433492287790493 -0.007639253706728489 -0.005658189576172698 -0.03572636158032204 0.04630626339669605 0.038229389396824034 0.04322187907151977 -5.6474770146542195 0.014884273022344472 -0.021800066579284016 -6.752443869789226 0.04697887064531598 -0.022565801496360383 -6.716783617135757 -0.03300477401328025 -0.027308128873711195 0.046347134618385064 -0.018866193223316657 -0.012083821597450146 8.02989495253114 3.529696957651026 -19.212001957517625 -0.011918810817424798 10.440245306216804 0.05234106290226831 -5.645305416098691 -15.616483791706473 3.15325036543192 -0.0063061629088728855 0.00814444348166935 0.0318933103717638 0.004496920925120836 4.678912070967823 -0.0023813439730221895 12.487888974614771 -8.270733211467677 6.850703454660361 0.01986805219592418 46.380219257819604 0.0176017808077801 -4.33096732714295 -14.74090957952033 -3.8068049962168273 -0.003777763053103913 0.010948721668181558 -0.0264854905987442 0.012051815925604193 -10.73212537725783 0.047792787945595 
-0.020540410198035368 -0.04546889388712037 -0.005785116744412397 0.02047871973730197 0.012177581589398148 -0.01318773037197826 4.671492403591767 2.400355493347473 -2.1069839313752805 -0.6793477541237151 3.4988205415799913 0.4179940335587562 -0.6197442166584561 -1.181010688213219 1.5697383077020919 -0.108699556298511 -0.3333585481228527 -0.19391482926518572 0.7025211741007871 11.983001448966501 -3.235686718204996 0.36818968410649 -0.5282640032831808 -8.636453029392174 1.4335174701092044 -16.87402035455628 -0.801637150821285 -9.37577929404159 3.3481749015538 -16.22788634356003 77.06174121344652 19.807503829640456 15.312767563295253 27.626418844416236 8.103463570461374 87.52291363081895 18.339227357904168 -0.42060468569352105 -7.020583128474102 4.50163379520572 -0.10877604742160359 -1.5463801287808572 -0.04536911157689135 -0.041796271848586176 -56.23142921396806 -0.03980973630364625 -0.020938647562331412 -56.2084836858788 -38.72442785456194 0.042744695541962786 -0.04247754218806141 0.001344667419440236 0.02750676260781039 -0.005664238941585244 -0.03852237793337438 -0.009302116371611944 -0.012590083417916115 -36.70320761088431 0.0454723168689255 0.04165372676680072 0.02723643724085856 0.0009406555940519864 -0.046298005672030206 0.03280910062678065 -0.041504706939983496 0.004822435910331777 -19.750526333480266 0.02189184093608516 0.02382197315572428 -0.017000713118090052 0.012029399434383687 0.011028883316455823 -0.04326505509109941 0.005579284780350716 -0.018847995140198057 24.069991380564208 0.0001305523786311772 0.01679011912912097 28.888423579220895 0.011354890479177865 0.04954218886400361 28.885814801785898 -0.0016366785450694786 -0.006720615439938334 8.514821453230704 2.1409181911729727 14.039114179313229 -74.6377295323213 25.676150400406343 -10.65674349088397 -26.29803400830307 7.1926627827662575 -78.55670745894322 -23.687331682270006 -8.083627436074194 5.793540951755746 -0.4861289974997345 0.11710697389496415 -8.08790457797345 0.018776045838778965 -0.04306967658249031 44.53438219745583 0.01901825101249647 0.037730124226092634 44.56616003017242 12.431007252386987 -0.014438172752564817 -0.018468277231587886 0.007495883481313815 0.04173862990167403 0.035681140340583756 -0.018976423931476288 0.010080849651463455 0.0010703946388809485 11.148694413549725 -0.043468665840265555 0.02589031070714278 0.014504632069008604 -0.03576246925334412 -0.014889161388202447 0.01429350681244502 0.030021351288307692 0.04186086323806651 4.7232196301781535 -0.01673620450437853 0.009868077590657245 0.030550691373501786 -0.004656535952227799 0.03097296222760552 0.03155089844856133 -0.048544611080331285 -0.0150601054839667 -5.605846180125528 -0.031086405437785184 0.004487991756470801 -6.704691247403561 0.03772287581427899 0.0014510400449605815 -6.7373713170818705 -0.03554368445540154 -0.019537260226536304 -0.0018228726261337895 -0.04199190356829695 -0.04503749256906068 8.07985947176919 3.5406299844990854 -19.244506125017914 -0.041888829253662906 10.420884387719362 -0.021667200813320967 -5.582884277104055 -15.664352643669577 3.1648681296882146 -0.038135696259448154 0.017691195952851867 0.0053165305840758665 -0.023388786524919117 4.647823421885949 0.02659784525607581 12.444306818738424 -8.203218453332932 6.87639703816579 0.019629639356723474 46.3669908683102 -0.006964215827765156 -4.307312862134802 -14.700223515916413 -3.833895652909887 0.012651663774303473 0.014418306516099799 0.0038137556713046697 0.03318961228709271 -10.713973201820949 0.019892701950918735 
-0.04970559775945411 -0.04174552966046244 0.01891204277045736 0.009062952631602035 0.03200212264968351 -0.006614639866088555 4.786743482489048 2.310384220280139 -2.1110002567391293 -0.6373576684930258 3.5402249102739582 0.41061978464283894 -0.6935812403115683 -1.1843070639345064 1.502892235435681 -0.19874424985660694 -0.4231651681988898 -0.17950752136673204 0.613579889481341 11.994663475434528 -2.9906554168710375 0.3668597948224669 -0.46847008742907303 -7.979889072556823 1.4470654565053316 -16.75597220070858 -0.740008498562957 -9.568816363542835 3.3613057519608507 -16.475809828720386 78.24933676193812 18.96424677895975 14.619616759186378 22.45529189983869 6.821944306886772 88.38052255901692 17.7435047604112 -0.4901240158104697 -6.2081799025305 4.52363059469708 -0.10265821257269508 -1.5481573556014059 -0.04636585154593049 0.03573539243341955 -56.24279361620044 0.035800471255038074 0.0026379235991969515 -56.226813520689696 -38.73246778143577 0.04665983932244329 0.038245746083255434 -0.04573231572326575 0.005625237839135124 0.0034562859097261355 -0.022837318838893263 -0.007661426403227857 0.0018909473549603456 -36.66957306464311 0.03277672692365219 0.04267585031453605 0.029562004645027007 -0.0023167690386975406 -0.03737220423430593 -0.011658063006941118 -0.04544024871340176 0.03325927042739418 -19.728088962314374 0.026628883512645557 0.025460776797575413 0.03283503288353901 0.03585068367965863 -0.031696418332568393 -0.02383000801668792 0.029134539463330632 -0.007190494162906683 24.066811259780483 -0.01815552416267195 0.03468587655841443 28.89989554607032 -0.04464725894738487 0.01280530842546932 28.861368442571425 0.03579145197572081 0.00410558676949217 8.7870504226175 2.19779540225578 14.205770665669558 -75.2062695389919 25.223839808808332 -10.639421634811917 -24.27320990059606 6.862241797494587 -77.47327344273815 -22.964813755490393 -7.902509370322933 5.590433522827209 -0.4967557881754664 0.04878235704690108 -8.09602715054123 -0.01466270026821044 -0.0445992903038434 44.54102965787027 -0.007041532786855897 -0.022534318217969657 44.592394104442256 12.422168130171087 0.009878181909493813 0.004436539239096938 0.012254924675441299 0.011953339990333071 -0.011220430152095189 0.006841377571704562 0.044550559146285786 0.0009696038639919158 11.14353684227316 3.5931766036133905e-05 0.04849545560096679 0.0421221794268233 -0.02906844059331085 -0.03619728288574229 0.04408385885789687 0.02036113378882067 -0.044983236044969906 4.729638866272748 -0.04625877820681476 -0.023936870733527803 0.02052767015374353 0.020790789193462923 0.02765491011686995 -0.001578951060130376 -0.018650109998399483 -0.040948993637698036 -5.6096400838339315 0.008429474488281212 0.007478896157969151 -6.718275971298124 0.002578470651623852 -0.005647431720349579 -6.727649962875742 0.015493155849527518 -0.006712026402900866 0.02878028771718076 -0.002611921635785265 0.04277734870691548 8.026073655362097 3.4787579414809353 -19.211898076195514 0.04641152254849875 10.348546941518181 0.011415141859541685 -5.652719949460875 -15.611124050178752 3.181220159438339 0.010699157961177545 0.019913792545767355 -0.04583762350277239 -0.03929176312794825 4.68292563851303 0.0016262350541824803 12.429430227801195 -8.19883628578093 6.91614206547157 0.014408470532833192 46.36539473894075 0.01777891412087861 -4.31367818764233 -14.754683557871479 -3.8445194316471993 -0.011530159829265705 0.02555145107720989 0.01468888396744715 -0.032540681887482374 -10.749102907734494 -0.018689720732890665 
-0.04430591716179595 -0.005957372046301574 0.026833230467203092 -0.017531541742135993 0.035654767829740336 -0.04980423656960496 4.776033742218023 2.316495465712335 -2.159477480359431 -0.6742347164058998 3.4966146260519433 0.39448894804077844 -0.6910308514825554 -1.198094357187768 1.4931349913522027 -0.2593554713024848 -0.37708945296554686 -0.23652309243174863 0.5170022540242524 11.905435730664431 -2.742682262537983 0.41861199586307696 -0.39038387610613157 -7.106157486969635 1.3915896817087432 -16.64455231501564 -0.598991923210843 -9.591080338003442 3.3943530766526657 -16.72270300037368 79.36290766201789 18.92159342015804 13.507700877730977 17.55271398625972 5.247577359100164 89.95609222684233 17.21748746583616 -0.4872179939964831 -5.522469686401795 4.572153948139423 -0.1596897548460451 -1.605692415712705 -0.027991117949324726 -0.03616271097111607 -56.22440396240441 0.029755315078504877 -0.03569115094992472 -56.200026126239216 -38.81086457619259 0.024361215869242676 0.042823292834484085 0.03732230868635532 0.03851964521642727 0.03775014811526942 0.01845078371445597 -0.014761952158886153 0.02638855675725318 -36.7024686637549 -0.0014316471189453445 -0.017539538013297516 -0.04455045573007377 0.0004057534150684699 -0.04576114229195779 0.00531461544636002 0.031006055743851294 0.022751911246460737 -19.807755021758098 0.012722964338795674 -0.014605783303281508 -0.004806463781556339 0.048681325464593465 -0.0269673767411357 -0.000894180714065609 -0.0208999745275452 -0.009745500952253437 24.010641316941733 -0.0031168287599240866 0.022959391517662835 28.8597311125919 -0.006169362264832037 -0.012476257928080759 28.81678001971218 0.029358510379563645 0.044988920694101375 9.023447283648466 2.1900333439269932 14.338707100011355 -75.76690588911588 25.10325310772554 -10.400769726182299 -23.810048924470866 7.137131216420634 -77.54229281129211 -22.581486754065683 -8.002217882353888 5.6918665266842545 -0.4593921855322974 0.01784807631968452 -8.149889299041451 -0.0323184931594704 0.029578085726829902 44.592178423591704 0.02591043319676156 -0.03619612769906357 44.58247454052098 12.412181599547075 0.026585455800133027 -0.003752479425894656 -0.030960099590502985 0.04010829979295174 0.014568159074174936 -0.024641098572022794 0.02737954258022279 0.04772269570779276 11.118501889684941 0.020128080890713895 -0.017341166869087904 0.0303608222966767 -0.028552542248171876 0.00294236555137034 0.025290710812112344 0.04560065017123728 0.019231929692302502 4.776110076492712 0.04116743539332162 0.03822332217320358 0.042881936939210476 0.02970932367654851 0.00453077856549849 0.025649806531515447 0.014469489572992648 -0.04755208562246861 -5.635161682809067 0.009520447589604537 0.008076825499920266 -6.687890840088098 0.035893457882988804 -0.005802526531328347 -6.770723306978228 0.03698663543714521 0.011276703028374465 0.03421038680088314 0.006519334835180067 0.0033264707585715274 8.028064221845701 3.516385835492879 -19.21047778344694 0.045794419002226736 10.420290519806844 0.0029302922520880077 -5.6397343930463375 -15.64788003817281 3.166930306433116 0.008451745706449479 0.0309060352148598 0.04367489552395926 -0.031673668794975074 4.739615559216827 -0.016097310183071006 12.488652503452023 -8.280404634619604 6.932811449254462 -0.010017094997542882 46.41335840963771 -0.010431261577595104 -4.335171630142309 -14.74417888585167 -3.8426706401266695 0.013058804784694294 -0.04818193264608429 -0.03579373641149078 -0.029021716119805453 -10.726401152132878 -0.01671924133997282 
